STARTFONT 2.1
FONT -Monotype-Century Gothic-Bold-R-Normal--33-240-100-100-P-155-iso8859-9
SIZE 24 100 100
FONTBOUNDINGBOX 45 40 -4 -7

STARTPROPERTIES 24
FOUNDRY "Monotype"
FAMILY_NAME "Century Gothic"
WEIGHT_NAME "Bold"
SLANT "R"
SETWIDTH_NAME "Normal"
ADD_STYLE_NAME ""
PIXEL_SIZE 33
POINT_SIZE 240
RESOLUTION_X 100
RESOLUTION_Y 100
SPACING "P"
AVERAGE_WIDTH 155
CHARSET_REGISTRY "iso8859"
CHARSET_ENCODING "9"
FACE_NAME "Century Gothic Bold ISO Latin5"
_DEC_DEVICE_FONTNAMES "PS=centurygothic-b-lat5"
COPYRIGHT "Copyright (c) 1993 Monotype Typography Ltd."
CAP_HEIGHT 28
X_HEIGHT 21
WEIGHT 10
QUAD_WIDTH 22
DEFAULT_CHAR 160
FONT_DESCENT 7
FONT_ASCENT 33
ENDPROPERTIES

CHARS 191

STARTCHAR space
ENCODING 32
SWIDTH 280 0
DWIDTH 9 0
BBX 0 0 0 0
BITMAP
ENDCHAR

STARTCHAR exclam
ENCODING 33
SWIDTH 280 0
DWIDTH 9 0
BBX 6 24 2 0
BITMAP
78
78
78
78
78
78
78
78
78
78
78
78
78
78
78
78
78
00
10
78
FC
FC
78
30
ENDCHAR

STARTCHAR quotedbl
ENCODING 34
SWIDTH 360 0
DWIDTH 12 0
BBX 10 8 1 16
BITMAP
F3C0
F3C0
F3C0
E3C0
E1C0
E1C0
E1C0
E1C0
ENDCHAR

STARTCHAR numbersign
ENCODING 35
SWIDTH 600 0
DWIDTH 20 0
BBX 18 24 1 0
BITMAP
038F00
038E00
038E00
038E00
078E00
070E00
071E00
7FFFC0
7FFFC0
7FFFC0
071C00
0F1C00
0E3C00
FFFF80
FFFF80
FFFF80
0E3800
1E3800
1C3800
1C7800
1C7800
1C7000
1C7000
1C7000
ENDCHAR

STARTCHAR dollar
ENCODING 36
SWIDTH 560 0
DWIDTH 18 0
BBX 16 30 1 -4
BITMAP
01C0
01C0
0FF0
1FF8
3FFE
7FFE
7C3C
7808
7800
7C00
3F00
3FC0
1FF0
07FC
01FE
007E
001F
001F
000F
200F
701F
FC3F
FFFE
7FFE
1FFC
07F0
01C0
01C0
01C0
01C0
ENDCHAR

STARTCHAR percent
ENCODING 37
SWIDTH 860 0
DWIDTH 28 0
BBX 27 25 1 -1
BITMAP
1F801F00
3FFFFE00
7FFFDC00
F1FFB800
E0E03800
E0E07000
E0E0E000
F1E1C000
7FC1C000
3F838000
1F070000
000F0000
000E0000
001C1F00
00383F80
00787FC0
0070F1E0
00E0E0E0
01C0E0E0
03C0E0E0
0380F1E0
07007FC0
0E003F80
1E001F00
3C000000
ENDCHAR

STARTCHAR ampersand
ENCODING 38
SWIDTH 680 0
DWIDTH 22 0
BBX 20 23 2 0
BITMAP
07C000
1FF000
1FF000
3FF800
3E7800
3C7800
3C7800
3EF800
1FF000
1FE000
0FC000
1FC000
3FC000
7FE100
7DF380
F8FB80
F07FC0
F03F80
F8FF00
FFFF80
7FFFC0
3FE7E0
1F83F0
ENDCHAR

STARTCHAR quoteright
ENCODING 39
SWIDTH 280 0
DWIDTH 9 0
BBX 4 9 3 15
BITMAP
F0
F0
F0
F0
B0
70
60
E0
40
ENDCHAR

STARTCHAR parenleft
ENCODING 40
SWIDTH 380 0
DWIDTH 13 0
BBX 10 32 1 -6
BITMAP
07C0
0F80
1F80
1F00
3E00
3E00
3C00
7C00
7C00
7800
7800
7800
F800
F800
F800
F800
F800
F800
F800
F800
7800
7800
7C00
7C00
7C00
3E00
3E00
1F00
1F00
0F80
0FC0
07C0
ENDCHAR

STARTCHAR parenright
ENCODING 41
SWIDTH 380 0
DWIDTH 13 0
BBX 10 32 1 -6
BITMAP
FC00
7E00
3E00
1F00
1F00
0F00
0F80
0F80
0780
07C0
07C0
03C0
03C0
03C0
03C0
03C0
03C0
03C0
03C0
03C0
07C0
07C0
07C0
0780
0F80
0F80
0F00
1F00
3F00
3E00
7C00
FC00
ENDCHAR

STARTCHAR asterisk
ENCODING 42
SWIDTH 440 0
DWIDTH 15 0
BBX 13 13 1 11
BITMAP
0F00
2700
6720
7770
FAF8
37E0
0F00
7BF8
FEF0
7670
2720
0700
0F00
ENDCHAR

STARTCHAR plus
ENCODING 43
SWIDTH 600 0
DWIDTH 20 0
BBX 16 16 2 4
BITMAP
03C0
03C0
03C0
03C0
03C0
03C0
FFFF
FFFF
FFFF
FFFF
03C0
03C0
03C0
03C0
03C0
03C0
ENDCHAR

STARTCHAR comma
ENCODING 44
SWIDTH 280 0
DWIDTH 9 0
BBX 6 8 1 -4
BITMAP
18
3C
3C
38
78
70
E0
20
ENDCHAR

STARTCHAR minus
ENCODING 45
SWIDTH 600 0
DWIDTH 20 0
BBX 16 4 2 10
BITMAP
FFFF
FFFF
FFFF
FFFF
ENDCHAR

STARTCHAR period
ENCODING 46
SWIDTH 280 0
DWIDTH 9 0
BBX 5 5 2 0
BITMAP
70
F8
F8
F8
70
ENDCHAR

STARTCHAR slash
ENCODING 47
SWIDTH 460 0
DWIDTH 15 0
BBX 13 29 1 -4
BITMAP
0038
0038
0078
0070
0070
00E0
00E0
00E0
01C0
01C0
01C0
0380
0380
0780
0700
0700
0E00
0E00
0E00
1C00
1C00
3C00
3800
3800
7000
7000
7000
E000
E000
ENDCHAR

STARTCHAR zero
ENCODING 48
SWIDTH 560 0
DWIDTH 18 0
BBX 16 24 1 0
BITMAP
07E0
1FF8
3FFC
7FFE
7C3E
781E
F81F
F81F
F01F
F00F
F00F
F00F
F00F
F00F
F00F
F81F
F81F
F81F
7C1E
7C3E
7FFE
3FFC
1FF8
07E0
ENDCHAR

STARTCHAR one
ENCODING 49
SWIDTH 560 0
DWIDTH 18 0
BBX 10 24 2 0
BITMAP
1FC0
3FC0
7FC0
FFC0
07C0
07C0
07C0
07C0
07C0
07C0
07C0
07C0
07C0
07C0
07C0
07C0
07C0
07C0
07C0
07C0
07C0
07C0
07C0
07C0
ENDCHAR

STARTCHAR two
ENCODING 50
SWIDTH 560 0
DWIDTH 18 0
BBX 16 24 1 0
BITMAP
03F0
0FFC
1FFE
3FFE
7E3F
7C1F
780F
780F
000F
001F
001F
003E
007C
00FC
01F8
03F0
07E0
0FC0
1F80
3F00
7FFF
FFFF
FFFF
FFFF
ENDCHAR

STARTCHAR three
ENCODING 51
SWIDTH 560 0
DWIDTH 18 0
BBX 16 24 1 0
BITMAP
07E0
1FF8
3FFC
7FFC
7C7E
783E
003E
003E
007C
03F8
03F0
03F8
03FE
003E
001F
000F
F00F
F80F
F81F
7C3F
7FFE
3FFC
1FF8
07E0
ENDCHAR

STARTCHAR four
ENCODING 52
SWIDTH 560 0
DWIDTH 18 0
BBX 17 24 0 0
BITMAP
003E00
003E00
007E00
00FE00
00FE00
01FE00
03FE00
03EE00
07DE00
0F9E00
1F9E00
1F1E00
3E1E00
7C1E00
781E00
FFFF80
FFFF80
FFFF80
FFFF80
001E00
001E00
001E00
001E00
001E00
ENDCHAR

STARTCHAR five
ENCODING 53
SWIDTH 560 0
DWIDTH 18 0
BBX 16 24 1 0
BITMAP
07FF
0FFF
0FFF
0FFF
0F00
1F00
1F00
1E00
1FF0
1FF8
3FFC
3FFE
3E3F
041F
000F
000F
000F
000F
F81F
7E3E
7FFE
3FFC
1FF8
07E0
ENDCHAR

STARTCHAR six
ENCODING 54
SWIDTH 560 0
DWIDTH 18 0
BBX 14 24 2 0
BITMAP
0100
01C0
03E0
03C0
07C0
0780
0F80
0F00
1F00
1E00
3FC0
3FF0
7FF8
7FF8
F87C
F03C
F03C
F03C
F87C
F8FC
7FF8
3FF8
1FF0
0FC0
ENDCHAR

STARTCHAR seven
ENCODING 55
SWIDTH 560 0
DWIDTH 18 0
BBX 16 24 2 0
BITMAP
FFFF
FFFF
FFFE
FFFE
003C
007C
0078
00F8
00F0
01F0
01E0
03E0
03C0
07C0
0780
0F80
0F00
1F00
1E00
3E00
3C00
7C00
3800
0800
ENDCHAR

STARTCHAR eight
ENCODING 56
SWIDTH 560 0
DWIDTH 18 0
BBX 16 24 1 0
BITMAP
0FF0
1FF8
3FFC
7FFE
7C3E
781E
781E
783E
7C3E
3FFC
1FF8
3FFC
7FFE
7C3F
F81F
F00F
F00F
F00F
F81F
FC3F
7FFE
7FFE
3FFC
0FF0
ENDCHAR

STARTCHAR nine
ENCODING 57
SWIDTH 560 0
DWIDTH 18 0
BBX 14 24 2 0
BITMAP
0FC0
1FF0
7FF8
7FF8
FC7C
F87C
F03C
F03C
F03C
F87C
7FF8
7FF8
3FF0
0FF0
01E0
03E0
03C0
07C0
0780
0F80
0F00
1F00
0E00
0200
ENDCHAR

STARTCHAR colon
ENCODING 58
SWIDTH 280 0
DWIDTH 9 0
BBX 5 18 2 0
BITMAP
70
F8
F8
F8
70
00
00
00
00
00
00
00
00
70
F8
F8
F8
70
ENDCHAR

STARTCHAR semicolon
ENCODING 59
SWIDTH 280 0
DWIDTH 9 0
BBX 6 22 1 -4
BITMAP
38
7C
7C
7C
38
00
00
00
00
00
00
00
00
10
18
3C
38
38
70
70
E0
20
ENDCHAR

STARTCHAR less
ENCODING 60
SWIDTH 600 0
DWIDTH 20 0
BBX 16 20 2 2
BITMAP
0001
0007
001F
007F
01FE
07F8
1FE0
7FC0
FF00
F400
F800
FE00
7F80
1FE0
07F8
01FE
007F
001F
0007
0001
ENDCHAR

STARTCHAR equal
ENCODING 61
SWIDTH 600 0
DWIDTH 20 0
BBX 16 11 2 6
BITMAP
FFFF
FFFF
FFFF
FFFF
0000
0000
0000
FFFF
FFFF
FFFF
FFFF
ENDCHAR

STARTCHAR greater
ENCODING 62
SWIDTH 600 0
DWIDTH 20 0
BBX 16 20 2 2
BITMAP
8000
C000
F000
FC00
FF00
3FC0
0FF0
03FC
00FF
001F
003F
007F
01FE
07F8
1FE0
7F80
FE00
F800
E000
8000
ENDCHAR

STARTCHAR question
ENCODING 63
SWIDTH 560 0
DWIDTH 18 0
BBX 15 25 2 0
BITMAP
0FE0
3FF8
7FFC
7FFC
F83E
F01E
F01E
003E
003E
00FC
01FC
03F8
03E0
07C0
07C0
07C0
0780
0000
0000
0300
0780
0FC0
0FC0
0780
0300
ENDCHAR

STARTCHAR at
ENCODING 64
SWIDTH 740 0
DWIDTH 24 0
BBX 24 25 0 0
BITMAP
00FF80
03FFE0
07C1F0
1E0038
1C001C
38000E
703C06
60FEE7
E1FFE3
E3FFE3
C3C3E3
C781C3
C781C3
C781C7
E783C6
E7C7CE
63FFDC
73FFF8
70FBE0
380000
1C003E
0F0078
07E3F0
03FFE0
007F80
ENDCHAR

STARTCHAR A
ENCODING 65
SWIDTH 740 0
DWIDTH 24 0
BBX 23 24 1 0
BITMAP
007C00
00FC00
00FC00
00FE00
01FE00
01FF00
03EF00
03EF00
03EF80
07CF80
07C7C0
0787C0
0F83C0
0F83E0
1F03E0
1FFFE0
1FFFF0
3FFFF0
3FFFF8
7C00F8
7C0078
78007C
F8007C
F8003E
ENDCHAR

STARTCHAR B
ENCODING 66
SWIDTH 580 0
DWIDTH 19 0
BBX 15 24 2 0
BITMAP
FF80
FFE0
FFF0
FFF8
F8F8
F878
F878
F878
F8F8
FFF0
FFE0
FFF8
FFFC
F8FC
F83E
F81E
F81E
F81E
F83E
F8FE
FFFC
FFFC
FFF8
FFE0
ENDCHAR

STARTCHAR C
ENCODING 67
SWIDTH 780 0
DWIDTH 26 0
BBX 23 24 2 0
BITMAP
00FF80
03FFE0
0FFFF8
1FFFFC
3FC1FE
3F007C
7C0018
7C0000
F80000
F80000
F00000
F00000
F00000
F00000
F80000
F80000
7C0000
7C0038
3F007C
3FC1FE
1FFFFC
0FFFF8
03FFE0
00FF80
ENDCHAR

STARTCHAR D
ENCODING 68
SWIDTH 700 0
DWIDTH 23 0
BBX 19 24 3 0
BITMAP
FFF000
FFFC00
FFFE00
FFFF00
F87F80
F81F80
F80FC0
F807C0
F803C0
F803E0
F803E0
F803E0
F803E0
F803E0
F803E0
F803E0
F807C0
F807C0
F80F80
F87F80
FFFF00
FFFE00
FFFC00
FFF000
ENDCHAR

STARTCHAR E
ENCODING 69
SWIDTH 520 0
DWIDTH 17 0
BBX 13 24 2 0
BITMAP
FFF8
FFF8
FFF8
FFF8
F800
F800
F800
F800
F800
FFF8
FFF8
FFF8
FFF8
F800
F800
F800
F800
F800
F800
F800
FFF8
FFF8
FFF8
FFF8
ENDCHAR

STARTCHAR F
ENCODING 70
SWIDTH 480 0
DWIDTH 16 0
BBX 12 24 2 0
BITMAP
FFF0
FFF0
FFF0
FFF0
F800
F800
F800
F800
F800
FFF0
FFF0
FFF0
FFF0
F800
F800
F800
F800
F800
F800
F800
F800
F800
F800
F800
ENDCHAR

STARTCHAR G
ENCODING 71
SWIDTH 840 0
DWIDTH 28 0
BBX 25 24 1 0
BITMAP
00FFC000
03FFF000
07FFFC00
0FFFFE00
1FC0FE00
3F003C00
3E001800
7C000000
7C000000
F8000000
F8000000
F8000000
F807FF80
F807FF80
7807FF80
7C07FF80
7C000F00
3E001F00
3F803E00
1FE0FE00
0FFFFC00
07FFF800
03FFF000
007FC000
ENDCHAR

STARTCHAR H
ENCODING 72
SWIDTH 680 0
DWIDTH 22 0
BBX 18 24 2 0
BITMAP
F807C0
F807C0
F807C0
F807C0
F807C0
F807C0
F807C0
F807C0
F807C0
FFFFC0
FFFFC0
FFFFC0
FFFFC0
F807C0
F807C0
F807C0
F807C0
F807C0
F807C0
F807C0
F807C0
F807C0
F807C0
F807C0
ENDCHAR

STARTCHAR I
ENCODING 73
SWIDTH 280 0
DWIDTH 9 0
BBX 5 24 2 0
BITMAP
F8
F8
F8
F8
F8
F8
F8
F8
F8
F8
F8
F8
F8
F8
F8
F8
F8
F8
F8
F8
F8
F8
F8
F8
ENDCHAR

STARTCHAR J
ENCODING 74
SWIDTH 480 0
DWIDTH 16 0
BBX 13 24 0 0
BITMAP
00F8
00F8
00F8
00F8
00F8
00F8
00F8
00F8
00F8
00F8
00F8
00F8
00F8
00F8
00F8
00F8
00F8
00F8
10F8
3CF8
FFF0
7FF0
3FE0
0FC0
ENDCHAR

STARTCHAR K
ENCODING 75
SWIDTH 620 0
DWIDTH 20 0
BBX 17 24 3 0
BITMAP
F81F80
F83F00
F87E00
F87C00
F8F800
F9F000
FBF000
FBE000
FFC000
FF8000
FF0000
FF8000
FFC000
FBC000
FBE000
FBF000
F9F000
F8F800
F8FC00
F87C00
F83E00
F83F00
F81F80
F80F80
ENDCHAR

STARTCHAR L
ENCODING 76
SWIDTH 440 0
DWIDTH 15 0
BBX 11 24 2 0
BITMAP
F800
F800
F800
F800
F800
F800
F800
F800
F800
F800
F800
F800
F800
F800
F800
F800
F800
F800
F800
F800
FFE0
FFE0
FFE0
FFE0
ENDCHAR

STARTCHAR M
ENCODING 77
SWIDTH 900 0
DWIDTH 30 0
BBX 28 24 1 0
BITMAP
0F801F00
0F801F00
0F801F00
1FC03F00
1FC03F80
1FC03F80
1FE07F80
1FE07F80
1FE07F80
3EF0FB80
3EF0F7C0
3CF0F7C0
3CF9F3C0
3CF9E3C0
7C79E3C0
7C7DE3C0
7C7DC3E0
783FC3E0
783FC1E0
783F81E0
F81F81E0
F81F81E0
F01F01F0
F00F01F0
ENDCHAR

STARTCHAR N
ENCODING 78
SWIDTH 740 0
DWIDTH 24 0
BBX 19 24 3 0
BITMAP
F803E0
F803E0
FC03E0
FE03E0
FE03E0
FF03E0
FF83E0
FF83E0
FBC3E0
FBC3E0
FBE3E0
F9F3E0
F9F3E0
F8FBE0
F87DE0
F87DE0
F83FE0
F81FE0
F81FE0
F80FE0
F80FE0
F807E0
F803E0
F803E0
ENDCHAR

STARTCHAR O
ENCODING 79
SWIDTH 840 0
DWIDTH 28 0
BBX 25 24 1 0
BITMAP
00FF8000
03FFE000
07FFF800
0FFFFC00
1FC1FE00
3F007E00
7E003F00
7C001F00
7C000F80
F8000F80
F8000780
F8000780
F8000780
F8000780
F8000F80
7C000F80
7C001F00
3E003F00
3F007E00
1FC1FE00
0FFFFC00
07FFF800
03FFE000
007F8000
ENDCHAR

STARTCHAR P
ENCODING 80
SWIDTH 560 0
DWIDTH 18 0
BBX 14 24 3 0
BITMAP
FFE0
FFF0
FFF8
FFFC
F87C
F83C
F83C
F83C
F87C
FFFC
FFF8
FFF0
FFE0
F800
F800
F800
F800
F800
F800
F800
F800
F800
F800
F800
ENDCHAR

STARTCHAR Q
ENCODING 81
SWIDTH 840 0
DWIDTH 28 0
BBX 26 25 1 -1
BITMAP
00FF8000
03FFE000
07FFF800
0FFFFC00
1FC1FE00
3F007E00
3E003F00
7C001F00
7C000F80
F8000F80
F8000780
F8000780
F8000780
F8000780
F80FCF80
7C07CF80
7C03EF00
3E03FF00
3F00FE00
1FC1FE00
0FFFFC00
07FFFE00
03FFFF00
007F9F80
00000FC0
ENDCHAR

STARTCHAR R
ENCODING 82
SWIDTH 580 0
DWIDTH 19 0
BBX 15 24 3 0
BITMAP
FFE0
FFF0
FFF8
FFFC
F87C
F83C
F83C
F83C
F87C
FFFC
FFF8
FFF0
FFC0
FBC0
FBE0
FBE0
F9F0
F9F0
F8F8
F8F8
F87C
F87C
F83E
F83E
ENDCHAR

STARTCHAR S
ENCODING 83
SWIDTH 520 0
DWIDTH 17 0
BBX 14 24 1 0
BITMAP
0FC0
1FF0
3FF8
7FFC
7C78
7830
7800
7C00
3E00
3F80
1FC0
0FE0
07F0
03F8
00F8
007C
003C
303C
783C
FC7C
7FFC
7FF8
3FF0
0FC0
ENDCHAR

STARTCHAR T
ENCODING 84
SWIDTH 420 0
DWIDTH 14 0
BBX 13 24 0 0
BITMAP
FFF8
FFF8
FFF8
FFF8
0F80
0F80
0F80
0F80
0F80
0F80
0F80
0F80
0F80
0F80
0F80
0F80
0F80
0F80
0F80
0F80
0F80
0F80
0F80
0F80
ENDCHAR

STARTCHAR U
ENCODING 85
SWIDTH 640 0
DWIDTH 21 0
BBX 17 24 2 0
BITMAP
F80F80
F80F80
F80F80
F80F80
F80F80
F80F80
F80F80
F80F80
F80F80
F80F80
F80F80
F80F80
F80F80
F80F80
F80F80
F80F80
F80F80
F80F80
7C1F80
7E3F00
7FFF00
3FFE00
1FFC00
07F000
ENDCHAR

STARTCHAR V
ENCODING 86
SWIDTH 700 0
DWIDTH 23 0
BBX 21 24 1 0
BITMAP
F800F8
F800F8
7800F0
7C01F0
7C01F0
3C01E0
3E03E0
1E03E0
1F03C0
1F07C0
0F0780
0F8F80
0F8F80
078F00
07DF00
07DF00
03DE00
03FE00
03FE00
01FC00
01FC00
00F800
00F800
00F800
ENDCHAR

STARTCHAR W
ENCODING 87
SWIDTH 900 0
DWIDTH 30 0
BBX 28 24 1 0
BITMAP
F00F01F0
F80F01F0
F81F01E0
781F81E0
781F83E0
7C3F83E0
7C3FC3C0
3C3FC3C0
3C3FC3C0
3E7DC7C0
3E7BE7C0
3E79E780
1E79E780
1EF1FF80
1F70F780
1FF0FF00
0FF0FF00
0FE0FF00
0FE07F00
0FE07E00
07E07E00
07C03E00
07C03E00
07C03E00
ENDCHAR

STARTCHAR X
ENCODING 88
SWIDTH 680 0
DWIDTH 22 0
BBX 21 24 1 0
BITMAP
FC01F0
7C03E0
3E03E0
3E07C0
1F0F80
0F8F80
0F9F00
07DE00
03FE00
03FC00
01FC00
00F800
01F800
03FC00
03FE00
07DE00
0FDF00
0F8F80
1F0F80
3F07C0
3E03E0
7C03E0
7C01F0
F801F8
ENDCHAR

STARTCHAR Y
ENCODING 89
SWIDTH 620 0
DWIDTH 20 0
BBX 19 24 1 0
BITMAP
F803E0
7C07C0
7C07C0
3E0F80
1E0F00
1F1F00
0F1E00
0FBE00
07BC00
07FC00
03F800
03F800
01F000
01F000
01F000
01F000
01F000
01F000
01F000
01F000
01F000
01F000
01F000
01F000
ENDCHAR

STARTCHAR Z
ENCODING 90
SWIDTH 500 0
DWIDTH 17 0
BBX 15 24 1 0
BITMAP
FFFE
FFFC
FFFC
FFF8
00F8
00F0
01F0
01F0
03E0
03E0
03C0
07C0
0780
0F80
0F80
1F00
1F00
1E00
3E00
3C00
7FFC
7FFC
FFFC
FFFC
ENDCHAR

STARTCHAR bracketleft
ENCODING 91
SWIDTH 320 0
DWIDTH 11 0
BBX 7 30 2 -6
BITMAP
FE
FE
FE
FE
F8
F8
F8
F8
F8
F8
F8
F8
F8
F8
F8
F8
F8
F8
F8
F8
F8
F8
F8
F8
F8
F8
FE
FE
FE
FE
ENDCHAR

STARTCHAR backslash
ENCODING 92
SWIDTH 640 0
DWIDTH 21 0
BBX 13 29 4 -4
BITMAP
E000
E000
7000
7000
7000
3800
3800
3C00
1C00
1C00
0E00
0E00
0E00
0700
0700
0780
0380
0380
01C0
01C0
01C0
00E0
00E0
00F0
0070
0070
0078
0038
0038
ENDCHAR

STARTCHAR bracketright
ENCODING 93
SWIDTH 320 0
DWIDTH 11 0
BBX 7 30 1 -6
BITMAP
FE
FE
FE
FE
3E
3E
3E
3E
3E
3E
3E
3E
3E
3E
3E
3E
3E
3E
3E
3E
3E
3E
3E
3E
3E
3E
FE
FE
FE
FE
ENDCHAR

STARTCHAR asciicircum
ENCODING 94
SWIDTH 600 0
DWIDTH 20 0
BBX 16 18 2 6
BITMAP
03C0
03C0
07E0
07E0
0FE0
0FF0
0F70
1EF0
1E78
1E78
3C38
3C3C
3C3C
781C
781E
781E
F00F
F00F
ENDCHAR

STARTCHAR underscore
ENCODING 95
SWIDTH 500 0
DWIDTH 17 0
BBX 17 2 0 -4
BITMAP
FFFF80
FFFF80
ENDCHAR

STARTCHAR quoteleft
ENCODING 96
SWIDTH 280 0
DWIDTH 9 0
BBX 4 9 3 15
BITMAP
20
70
60
C0
F0
F0
F0
F0
F0
ENDCHAR

STARTCHAR a
ENCODING 97
SWIDTH 660 0
DWIDTH 22 0
BBX 18 18 2 0
BITMAP
07E3C0
1FFBC0
3FFFC0
7FFFC0
7E1FC0
F807C0
F807C0
F003C0
F003C0
F003C0
F003C0
F807C0
FC07C0
7E1FC0
3FFFC0
3FFFC0
0FFBC0
03E3C0
ENDCHAR

STARTCHAR b
ENCODING 98
SWIDTH 660 0
DWIDTH 22 0
BBX 18 24 2 0
BITMAP
F00000
F00000
F00000
F00000
F00000
F00000
F1F800
F7FE00
FFFF00
FFFF80
FE1F80
F807C0
F807C0
F003C0
F003C0
F003C0
F003C0
F807C0
F80FC0
FE1F80
FFFF00
FFFF00
F7FC00
F1F000
ENDCHAR

STARTCHAR c
ENCODING 99
SWIDTH 640 0
DWIDTH 21 0
BBX 18 18 2 0
BITMAP
03F800
0FFE00
1FFF80
3FFFC0
7E0F80
7C0200
F80000
F00000
F00000
F00000
F00000
F80000
7C0200
7E0F00
3FFFC0
1FFF80
0FFE00
03F800
ENDCHAR

STARTCHAR d
ENCODING 100
SWIDTH 660 0
DWIDTH 22 0
BBX 18 24 2 0
BITMAP
0003C0
0003C0
0003C0
0003C0
0003C0
0003C0
07E3C0
1FFBC0
3FFFC0
7FFFC0
7E1FC0
FC07C0
F807C0
F803C0
F003C0
F003C0
F803C0
F807C0
FC07C0
7E1FC0
3FFFC0
3FFFC0
0FFBC0
03E3C0
ENDCHAR

STARTCHAR e
ENCODING 101
SWIDTH 640 0
DWIDTH 21 0
BBX 18 18 2 0
BITMAP
03F000
0FFC00
1FFE00
3FFF00
7C0F80
7807C0
F803C0
FFFFC0
FFFFC0
FFFFC0
F00000
F80000
780400
7E0F00
3FFF80
1FFF00
0FFE00
03F000
ENDCHAR

STARTCHAR f
ENCODING 102
SWIDTH 280 0
DWIDTH 9 0
BBX 9 25 0 0
BITMAP
0F00
1F80
3F80
3F80
3C00
3C00
3C00
FF80
FF80
FF80
FF80
3C00
3C00
3C00
3C00
3C00
3C00
3C00
3C00
3C00
3C00
3C00
3C00
3C00
3C00
ENDCHAR

STARTCHAR g
ENCODING 103
SWIDTH 660 0
DWIDTH 22 0
BBX 18 24 2 -6
BITMAP
07E3C0
1FFBC0
3FFFC0
7FFFC0
7E1FC0
F807C0
F807C0
F003C0
F003C0
F003C0
F003C0
F807C0
FC07C0
7E1FC0
3FFFC0
1FFFC0
0FFBC0
03C3C0
0007C0
F80F80
7FFF80
3FFF00
1FFE00
07F800
ENDCHAR

STARTCHAR h
ENCODING 104
SWIDTH 600 0
DWIDTH 20 0
BBX 15 24 3 0
BITMAP
F000
F000
F000
F000
F000
F000
F1F0
F7F8
FFFC
FFFE
FC3E
F83E
F81E
F01E
F01E
F01E
F01E
F01E
F01E
F01E
F01E
F01E
F01E
F01E
ENDCHAR

STARTCHAR i
ENCODING 105
SWIDTH 240 0
DWIDTH 8 0
BBX 6 25 1 0
BITMAP
30
78
FC
FC
78
30
00
78
78
78
78
78
78
78
78
78
78
78
78
78
78
78
78
78
78
ENDCHAR

STARTCHAR j
ENCODING 106
SWIDTH 260 0
DWIDTH 9 0
BBX 9 31 -2 -6
BITMAP
0E00
0F00
1F80
1F80
0F00
0600
0000
0F00
0F00
0F00
0F00
0F00
0F00
0F00
0F00
0F00
0F00
0F00
0F00
0F00
0F00
0F00
0F00
0F00
0F00
0F00
0F00
FF00
FF00
FE00
7800
ENDCHAR

STARTCHAR k
ENCODING 107
SWIDTH 580 0
DWIDTH 19 0
BBX 17 24 2 0
BITMAP
F00000
F00000
F00000
F00000
F00000
F00000
F03F00
F07E00
F07C00
F0F800
F1F000
F3E000
F7E000
FFC000
FF8000
FF8000
F7C000
F3E000
F1F000
F0F800
F07C00
F03E00
F03F00
F01F80
ENDCHAR

STARTCHAR l
ENCODING 108
SWIDTH 240 0
DWIDTH 8 0
BBX 4 24 2 0
BITMAP
F0
F0
F0
F0
F0
F0
F0
F0
F0
F0
F0
F0
F0
F0
F0
F0
F0
F0
F0
F0
F0
F0
F0
F0
ENDCHAR

STARTCHAR m
ENCODING 109
SWIDTH 940 0
DWIDTH 31 0
BBX 26 18 3 0
BITMAP
F1F03E00
F7F8FF00
FFFDFF80
FFFFFFC0
FC7F87C0
F83F07C0
F81F03C0
F01E03C0
F01E03C0
F01E03C0
F01E03C0
F01E03C0
F01E03C0
F01E03C0
F01E03C0
F01E03C0
F01E03C0
F01E03C0
ENDCHAR

STARTCHAR n
ENCODING 110
SWIDTH 600 0
DWIDTH 20 0
BBX 15 18 2 0
BITMAP
F1F0
F7F8
FFFC
FFFE
FC3E
F83E
F81E
F01E
F01E
F01E
F01E
F01E
F01E
F01E
F01E
F01E
F01E
F01E
ENDCHAR

STARTCHAR o
ENCODING 111
SWIDTH 640 0
DWIDTH 21 0
BBX 18 18 2 0
BITMAP
03F000
0FFC00
1FFE00
3FFF00
7E1F80
FC07C0
F807C0
F003C0
F003C0
F003C0
F003C0
F807C0
F80FC0
7E1F80
3FFF00
1FFE00
0FFC00
03F000
ENDCHAR

STARTCHAR p
ENCODING 112
SWIDTH 660 0
DWIDTH 22 0
BBX 18 24 2 -6
BITMAP
F1F800
F7FE00
FFFF00
FFFF80
FE1F80
F807C0
F807C0
F003C0
F003C0
F003C0
F003C0
F807C0
F80FC0
FE1F80
FFFF00
FFFF00
F7FC00
F1F000
F00000
F00000
F00000
F00000
F00000
F00000
ENDCHAR

STARTCHAR q
ENCODING 113
SWIDTH 660 0
DWIDTH 22 0
BBX 18 24 2 -6
BITMAP
07E3C0
1FFBC0
3FFFC0
7FFFC0
7E1FC0
FC07C0
F807C0
F803C0
F003C0
F003C0
F803C0
F807C0
FC07C0
7E1FC0
3FFFC0
3FFFC0
0FFBC0
03E3C0
0003C0
0003C0
0003C0
0003C0
0003C0
0003C0
ENDCHAR

STARTCHAR r
ENCODING 114
SWIDTH 320 0
DWIDTH 11 0
BBX 9 18 1 0
BITMAP
F380
F780
F780
FF00
F800
F800
F000
F000
F000
F000
F000
F000
F000
F000
F000
F000
F000
F000
ENDCHAR

STARTCHAR s
ENCODING 115
SWIDTH 440 0
DWIDTH 15 0
BBX 13 18 0 0
BITMAP
0FC0
3FE0
3FF8
7FF0
7860
7C20
7E00
3F80
1FE0
0FF0
03F8
00F8
1078
38F8
FFF8
7FF0
3FE0
0F80
ENDCHAR

STARTCHAR t
ENCODING 116
SWIDTH 300 0
DWIDTH 10 0
BBX 9 24 1 0
BITMAP
3C00
3C00
3C00
3C00
3C00
3C00
FF80
FF80
FF80
FF80
3C00
3C00
3C00
3C00
3C00
3C00
3C00
3C00
3C00
3C00
3C00
3C00
3C00
3C00
ENDCHAR

STARTCHAR u
ENCODING 117
SWIDTH 600 0
DWIDTH 20 0
BBX 15 18 2 0
BITMAP
F81E
F81E
F81E
F81E
F81E
F81E
F81E
F81E
F81E
F81E
F81E
F81E
783E
7C7E
7FFC
3FF8
1FF0
07E0
ENDCHAR

STARTCHAR v
ENCODING 118
SWIDTH 560 0
DWIDTH 18 0
BBX 18 18 0 0
BITMAP
F803C0
7807C0
7C0780
3C0F80
3E0F00
1E1F00
1F1E00
1F1E00
0F3E00
0FBC00
07BC00
07F800
03F800
03F800
03F000
01F000
01E000
00E000
ENDCHAR

STARTCHAR w
ENCODING 119
SWIDTH 800 0
DWIDTH 26 0
BBX 26 18 0 0
BITMAP
F80E03C0
781E07C0
781E0780
7C1F0780
3C3F0F80
3C3F8F00
1E7F9F00
1E7F9E00
1F7BDE00
0F7BDE00
0FF3FC00
0FF1FC00
07E1FC00
07E1F800
07E0F800
03C0F800
03C0F000
01807000
ENDCHAR

STARTCHAR x
ENCODING 120
SWIDTH 560 0
DWIDTH 18 0
BBX 19 18 0 0
BITMAP
7C0FC0
3E0F80
3E1F00
1F3E00
0FBE00
07FC00
07F800
03F000
01F000
03F800
07F800
07FC00
0FBE00
1F3E00
3E1F00
3E0F80
7C0FC0
F807E0
ENDCHAR

STARTCHAR y
ENCODING 121
SWIDTH 580 0
DWIDTH 19 0
BBX 19 24 0 -6
BITMAP
F803E0
7803C0
7C07C0
3C0780
3E0F80
1E0F00
1E1F00
1F1F00
0F3E00
0FBE00
07BC00
07FC00
07F800
03F800
03F000
01F000
01E000
03E000
03C000
07C000
078000
0F8000
0F8000
1F0000
ENDCHAR

STARTCHAR z
ENCODING 122
SWIDTH 460 0
DWIDTH 15 0
BBX 15 18 0 0
BITMAP
3FFE
3FFC
3FFC
3FF8
00F0
01F0
01E0
03E0
03C0
07C0
0F80
0F80
1F00
1E00
3FFE
3FFE
7FFE
FFFE
ENDCHAR

STARTCHAR braceleft
ENCODING 123
SWIDTH 340 0
DWIDTH 11 0
BBX 11 31 0 -7
BITMAP
01E0
07E0
0FE0
0FE0
0F00
0F00
0F00
0F00
0F00
0F00
0F00
1F00
1E00
FE00
FC00
F800
FC00
7E00
1E00
1F00
0F00
0F00
0F00
0F00
0F00
0F00
0F80
0FE0
0FE0
07E0
01E0
ENDCHAR

STARTCHAR bar
ENCODING 124
SWIDTH 600 0
DWIDTH 20 0
BBX 3 30 8 -6
BITMAP
E0
E0
E0
E0
E0
E0
E0
E0
E0
E0
E0
E0
E0
E0
E0
E0
E0
E0
E0
E0
E0
E0
E0
E0
E0
E0
E0
E0
E0
E0
ENDCHAR

STARTCHAR braceright
ENCODING 125
SWIDTH 340 0
DWIDTH 11 0
BBX 11 31 0 -7
BITMAP
F800
FC00
FE00
FE00
1E00
1F00
1F00
1F00
1F00
1F00
0F00
0F00
0F80
0FE0
07E0
03E0
07E0
0FC0
0F00
0F00
0F00
1F00
1F00
1F00
1F00
1F00
1E00
FE00
FE00
FC00
F800
ENDCHAR

STARTCHAR asciitilde
ENCODING 126
SWIDTH 600 0
DWIDTH 20 0
BBX 16 8 2 8
BITMAP
3C00
FF01
FFC3
FFFF
FFFF
83FF
80FF
003C
ENDCHAR

STARTCHAR space
ENCODING 160
SWIDTH 280 0
DWIDTH 11 0
BBX 0 0 0 0
BITMAP
ENDCHAR

STARTCHAR exclamdown
ENCODING 161
SWIDTH 280 0
DWIDTH 9 0
BBX 6 25 2 -6
BITMAP
30
78
FC
FC
78
00
00
78
78
78
78
78
78
78
78
78
78
78
78
78
78
78
78
78
78
ENDCHAR

STARTCHAR cent
ENCODING 162
SWIDTH 560 0
DWIDTH 18 0
BBX 15 24 2 -3
BITMAP
001C
001C
0038
07F8
1FF8
3FFC
3FFE
7CFC
F8E8
F9C0
F1C0
F380
F380
F700
FB00
FE00
7E18
3FFC
3FFE
1FF8
3FE0
3800
7000
7000
ENDCHAR

STARTCHAR sterling
ENCODING 163
SWIDTH 560 0
DWIDTH 18 0
BBX 17 24 1 0
BITMAP
03F000
0FFC00
1FFE00
1FFE00
3F1F00
3E1F00
3E0000
3E0000
1F0000
7FF800
7FF800
7FF800
7FF800
0F8000
0F8000
0F8000
0F8000
0F0000
1F0780
3F0F80
FFFF00
7FFF00
7FFE00
7FF800
ENDCHAR

STARTCHAR currency
ENCODING 164
SWIDTH 600 0
DWIDTH 20 0
BBX 16 16 2 4
BITMAP
47E2
EFFF
FFFE
7C3E
780E
F00F
E007
E007
E007
E007
F00F
701E
7C3E
FFFF
EFFB
47E2
ENDCHAR

STARTCHAR yen
ENCODING 165
SWIDTH 560 0
DWIDTH 18 0
BBX 17 24 1 0
BITMAP
F80F80
780F00
7C1F00
3C1F00
3E3E00
3E3E00
1F7C00
1F7C00
0FF800
0FF800
07F000
7FFF00
7FFF00
7FFF00
03E000
03E000
7FFF00
7FFF00
7FFF00
03E000
03E000
03E000
03E000
03E000
ENDCHAR

STARTCHAR brokenbar
ENCODING 166
SWIDTH 600 0
DWIDTH 20 0
BBX 3 30 8 -6
BITMAP
E0
E0
E0
E0
E0
E0
E0
E0
E0
E0
00
00
00
00
00
00
00
00
00
00
E0
E0
E0
E0
E0
E0
E0
E0
E0
E0
ENDCHAR

STARTCHAR section
ENCODING 167
SWIDTH 560 0
DWIDTH 18 0
BBX 15 32 2 -6
BITMAP
0FC0
1FF0
3FF8
7FF8
7C7C
783C
7C00
7E00
3F00
1FC0
3FE0
7FF8
7BFC
F0FC
F07E
F03E
F81E
7C1E
7F3C
3FFC
1FE8
0FF0
03F8
01F8
007C
003C
7C3C
7C7C
3FFC
3FF8
1FF0
07E0
ENDCHAR

STARTCHAR dieresis
ENCODING 168
SWIDTH 500 0
DWIDTH 17 0
BBX 12 5 2 21
BITMAP
70E0
F9F0
F9F0
F8F0
70E0
ENDCHAR

STARTCHAR copyright
ENCODING 169
SWIDTH 740 0
DWIDTH 24 0
BBX 23 24 1 0
BITMAP
01FF00
07FFC0
0F83E0
1E00F0
3C0078
387E38
71FF1C
61C78C
E3838E
E301CE
C70006
C70006
C70006
C70006
E301CE
E3838E
61C78C
70FF1C
387C38
3C0078
1F01F0
07FFC0
03FF80
007C00
ENDCHAR

STARTCHAR ordfeminine
ENCODING 170
SWIDTH 360 0
DWIDTH 12 0
BBX 10 12 1 12
BITMAP
3DC0
7FC0
7FC0
F3C0
E1C0
E1C0
E1C0
E1C0
F3C0
7FC0
7FC0
1DC0
ENDCHAR

STARTCHAR guillemotleft
ENCODING 171
SWIDTH 460 0
DWIDTH 15 0
BBX 15 18 0 0
BITMAP
1E1E
1E3C
1E3C
3C3C
3C78
3C78
7878
78F0
F8F0
78F0
78F0
7878
3C78
3C78
3C3C
1E3C
1E3C
1E1E
ENDCHAR

STARTCHAR logicalnot
ENCODING 172
SWIDTH 600 0
DWIDTH 20 0
BBX 16 11 2 6
BITMAP
FFFF
FFFF
FFFF
FFFF
000F
000F
000F
000F
000F
000F
000F
ENDCHAR

STARTCHAR hyphen
ENCODING 173
SWIDTH 420 0
DWIDTH 14 0
BBX 8 4 3 7
BITMAP
FF
FF
FF
FF
ENDCHAR

STARTCHAR registered
ENCODING 174
SWIDTH 740 0
DWIDTH 24 0
BBX 24 24 0 0
BITMAP
00FF80
03FFE0
0FC1F0
1E0078
3C001C
39FF0E
71FF8E
61FFC7
E1C1C7
E1C1C3
C1C3C3
C1FF03
C1FF83
E1C3C3
E1C1C7
E1C1C7
71C1C6
71C1CE
38001C
1E0038
0F80F8
07FFE0
01FFC0
003E00
ENDCHAR

STARTCHAR macron
ENCODING 175
SWIDTH 420 0
DWIDTH 14 0
BBX 10 3 2 21
BITMAP
FFC0
FFC0
FFC0
ENDCHAR

STARTCHAR degree
ENCODING 176
SWIDTH 400 0
DWIDTH 13 0
BBX 11 11 1 13
BITMAP
1F00
3F80
60C0
E060
C060
C060
C060
E0E0
71C0
3F80
1F00
ENDCHAR

STARTCHAR plusminus
ENCODING 177
SWIDTH 600 0
DWIDTH 20 0
BBX 16 23 2 0
BITMAP
03C0
03C0
03C0
03C0
03C0
03C0
FFFF
FFFF
FFFF
FFFF
03C0
03C0
03C0
03C0
03C0
03C0
0000
0000
0000
FFFF
FFFF
FFFF
FFFF
ENDCHAR

STARTCHAR twosuperior
ENCODING 178
SWIDTH 336 0
DWIDTH 11 0
BBX 10 13 0 11
BITMAP
1E00
3F80
7FC0
71C0
E1C0
03C0
0380
0700
1E00
3C00
7FC0
FFC0
FFC0
ENDCHAR

STARTCHAR threesuperior
ENCODING 179
SWIDTH 336 0
DWIDTH 11 0
BBX 10 13 1 11
BITMAP
1C00
7F00
7F80
E380
0380
0E00
0F80
03C0
01C0
E1C0
7FC0
7F80
1E00
ENDCHAR

STARTCHAR acute
ENCODING 180
SWIDTH 420 0
DWIDTH 14 0
BBX 9 6 4 21
BITMAP
1F80
1E00
3E00
3C00
7800
F000
ENDCHAR

STARTCHAR mu
ENCODING 181
SWIDTH 576 0
DWIDTH 19 0
BBX 17 24 1 -6
BITMAP
F80F80
F80F80
F80F80
F80F80
F80F80
F80F80
F80F80
F80F80
F80F80
F80F80
F80F80
F80F80
FC0F80
FE1F80
FFFF80
FFF780
FBEF80
F9CF80
F80000
F80000
F80000
F80000
F80000
F80000
ENDCHAR

STARTCHAR paragraph
ENCODING 182
SWIDTH 600 0
DWIDTH 20 0
BBX 14 31 3 -7
BITMAP
0FFC
3FFC
7F18
FF18
FF18
FF18
FF18
FF18
FF18
FF18
7F18
3F18
1F18
0318
0318
0318
0318
0318
0318
0318
0318
0318
0318
0318
0318
0318
0318
0318
0318
0318
0318
ENDCHAR

STARTCHAR periodcentered
ENCODING 183
SWIDTH 280 0
DWIDTH 9 0
BBX 5 5 2 9
BITMAP
70
F8
F8
F8
70
ENDCHAR

STARTCHAR cedilla
ENCODING 184
SWIDTH 340 0
DWIDTH 11 0
BBX 8 6 1 -6
BITMAP
1C
1F
07
4F
7F
FE
ENDCHAR

STARTCHAR onesuperior
ENCODING 185
SWIDTH 336 0
DWIDTH 11 0
BBX 6 12 1 12
BITMAP
3C
7C
FC
1C
1C
1C
1C
1C
1C
1C
1C
1C
ENDCHAR

STARTCHAR ordmasculine
ENCODING 186
SWIDTH 360 0
DWIDTH 12 0
BBX 10 12 1 12
BITMAP
1E00
3F00
7F80
F3C0
E1C0
E1C0
E1C0
E1C0
F3C0
7F80
3F00
1E00
ENDCHAR

STARTCHAR guillemotright
ENCODING 187
SWIDTH 460 0
DWIDTH 15 0
BBX 15 18 0 0
BITMAP
F8F0
78F0
78F8
3C78
3C78
3C3C
1E3C
1E3C
1E1E
1E3E
1E3C
3E3C
3C7C
3C78
7C78
78F8
78F0
F8F0
ENDCHAR

STARTCHAR onequarter
ENCODING 188
SWIDTH 840 0
DWIDTH 28 0
BBX 25 24 2 0
BITMAP
3C01C000
7C01C000
FC018000
1C038000
1C038000
1C070000
1C070000
1C060000
1C0E0000
1C0E0000
1C1C0000
1C1C0700
00180F00
00381F00
00383F00
00703B00
00707700
0060E700
00E1C700
00E1FF80
01C1FF80
01C00700
01800700
03800700
ENDCHAR

STARTCHAR onehalf
ENCODING 189
SWIDTH 840 0
DWIDTH 28 0
BBX 25 24 2 0
BITMAP
3C01C000
7C018000
FC038000
1C038000
1C070000
1C070000
1C060000
1C0E0000
1C0E0000
1C1C0000
1C1C0000
1C381C00
00387F00
0030FF80
0070E380
0070E380
00E00780
00E00700
00C00E00
01C03E00
01C07800
0380FF80
0381FF80
0701FF80
ENDCHAR

STARTCHAR threequarters
ENCODING 190
SWIDTH 840 0
DWIDTH 28 0
BBX 26 25 1 -1
BITMAP
1C007000
7F00E000
7F80E000
E381C000
0381C000
0E018000
0F838000
03C38000
01C70000
E1C70000
7F860000
7F8E0000
1E0E0780
001C0F80
001C0F80
00381D80
00383B80
00307380
0070E380
0070FFC0
00E0FFC0
00E00380
00C00380
01C00380
01C00000
ENDCHAR

STARTCHAR questiondown
ENCODING 191
SWIDTH 560 0
DWIDTH 18 0
BBX 15 25 2 -6
BITMAP
0180
07C0
07E0
07E0
03C0
0180
0000
03C0
03C0
03C0
07C0
07C0
0F80
3F80
7F00
7E00
FC00
F800
F01E
F81E
FC3E
7FFC
7FFC
3FF8
0FE0
ENDCHAR

STARTCHAR Agrave
ENCODING 192
SWIDTH 740 0
DWIDTH 24 0
BBX 23 32 1 0
BITMAP
07E000
01E000
00F000
007800
003800
003C00
000000
000000
007C00
00FC00
00FC00
00FE00
01FE00
01FF00
03EF00
03EF00
03EF80
07CF80
07C7C0
0787C0
0F83C0
0F83E0
1F03E0
1FFFE0
1FFFF0
3FFFF0
3FFFF8
7C00F8
7C0078
78007C
F8007C
F8003E
ENDCHAR

STARTCHAR Aacute
ENCODING 193
SWIDTH 740 0
DWIDTH 24 0
BBX 23 32 1 0
BITMAP
000F80
001F00
003E00
003C00
007800
00F000
000000
000000
007C00
00FC00
00FC00
00FE00
01FE00
01FF00
03EF00
03EF00
03EF80
07CF80
07C7C0
0787C0
0F83C0
0F83E0
1F03E0
1FFFE0
1FFFF0
3FFFF0
3FFFF8
7C00F8
7C0078
78007C
F8007C
F8003E
ENDCHAR

STARTCHAR Acircumflex
ENCODING 194
SWIDTH 740 0
DWIDTH 24 0
BBX 23 30 1 0
BITMAP
007C00
01FE00
03EF00
07CFC0
000000
000000
007C00
00FC00
00FC00
00FE00
01FE00
01FF00
03EF00
03EF00
03EF80
07CF80
07C7C0
0787C0
0F83C0
0F83E0
1F03E0
1FFFE0
1FFFF0
3FFFF0
3FFFF8
7C00F8
7C0078
78007C
F8007C
F8003E
ENDCHAR

STARTCHAR Atilde
ENCODING 195
SWIDTH 740 0
DWIDTH 24 0
BBX 23 30 1 0
BITMAP
03F180
07FF80
07FFC0
021F00
000000
000000
007C00
00FC00
00FC00
00FE00
01FE00
01FF00
03EF00
03EF00
03EF80
07CF80
07C7C0
0787C0
0F83C0
0F83E0
1F03E0
1FFFE0
1FFFF0
3FFFF0
3FFFF8
7C00F8
7C0078
78007C
F8007C
F8003E
ENDCHAR

STARTCHAR Adieresis
ENCODING 196
SWIDTH 740 0
DWIDTH 24 0
BBX 22 30 1 0
BITMAP
038700
07CF80
07CF80
038700
010200
000000
007800
00FC00
00FC00
01FE00
01FE00
01FE00
03FF00
03EF00
03CF80
07CF80
07C780
0F87C0
0F87C0
0F03C0
1F03E0
1FFFE0
3FFFF0
3FFFF0
3FFFF0
7C00F8
7C00F8
78007C
F8007C
F0003C
ENDCHAR

STARTCHAR Aring
ENCODING 197
SWIDTH 740 0
DWIDTH 24 0
BBX 23 33 1 0
BITMAP
007C00
00FE00
00E600
00C600
00EE00
007E00
003C00
000000
000000
007C00
007C00
00FE00
00FE00
01FF00
01FF00
01FF00
03EF80
03EF80
07C7C0
07C7C0
07C3C0
0F83E0
0F83E0
0F01E0
1FFFF0
1FFFF0
3FFFF8
3FFFF8
3C0078
7C007C
7C007C
F8003E
F8003E
ENDCHAR

STARTCHAR AE
ENCODING 198
SWIDTH 900 0
DWIDTH 30 0
BBX 27 24 1 0
BITMAP
001FFFE0
001FFFE0
003FFFE0
003FFFE0
007DE000
007BE000
00FBE000
00FBE000
01F3E000
01F3FFE0
03E3FFE0
03E3FFE0
03C3FFE0
07C3E000
0783E000
0FFFE000
0FFFE000
1FFFE000
1FFFE000
3E03E000
3C03FFE0
7C03FFE0
7803FFE0
F803FFE0
ENDCHAR

STARTCHAR Ccedilla
ENCODING 199
SWIDTH 780 0
DWIDTH 26 0
BBX 22 29 2 -5
BITMAP
00FF00
03FFE0
0FFFF0
1FFFF8
3F81FC
3E0078
7C0030
780000
F80000
F80000
F00000
F00000
F00000
F00000
F80000
F80000
780000
7C0030
3E0078
3F83FC
1FFFF8
0FFFF0
03FFE0
00FF00
007800
001C00
011C00
01FC00
01F800
ENDCHAR

STARTCHAR Egrave
ENCODING 200
SWIDTH 520 0
DWIDTH 17 0
BBX 13 32 2 0
BITMAP
7E00
1E00
1F00
0F00
0780
03C0
0000
0000
FFF8
FFF8
FFF8
FFF8
F800
F800
F800
F800
F800
FFF8
FFF8
FFF8
FFF8
F800
F800
F800
F800
F800
F800
F800
FFF8
FFF8
FFF8
FFF8
ENDCHAR

STARTCHAR Eacute
ENCODING 201
SWIDTH 520 0
DWIDTH 17 0
BBX 13 32 2 0
BITMAP
01F8
03E0
03C0
0780
0F00
0E00
0000
0000
FFF8
FFF8
FFF8
FFF8
F800
F800
F800
F800
F800
FFF8
FFF8
FFF8
FFF8
F800
F800
F800
F800
F800
F800
F800
FFF8
FFF8
FFF8
FFF8
ENDCHAR

STARTCHAR Ecircumflex
ENCODING 202
SWIDTH 520 0
DWIDTH 17 0
BBX 13 31 2 0
BITMAP
0780
0FC0
1FE0
3DF0
F8F8
0000
0000
FFF8
FFF8
FFF8
FFF8
F800
F800
F800
F800
F800
FFF8
FFF8
FFF8
FFF8
F800
F800
F800
F800
F800
F800
F800
FFF8
FFF8
FFF8
FFF8
ENDCHAR

STARTCHAR Edieresis
ENCODING 203
SWIDTH 520 0
DWIDTH 17 0
BBX 13 31 2 0
BITMAP
3870
7CF8
7CF8
7CF8
3870
0000
0000
FFF8
FFF8
FFF8
FFF8
F800
F800
F800
F800
F800
FFF8
FFF8
FFF8
FFF8
F800
F800
F800
F800
F800
F800
F800
FFF8
FFF8
FFF8
FFF8
ENDCHAR

STARTCHAR Igrave
ENCODING 204
SWIDTH 280 0
DWIDTH 9 0
BBX 9 32 -1 0
BITMAP
F800
7C00
3C00
1E00
0F00
0780
0000
0000
1F00
1F00
1F00
1F00
1F00
1F00
1F00
1F00
1F00
1F00
1F00
1F00
1F00
1F00
1F00
1F00
1F00
1F00
1F00
1F00
1F00
1F00
1F00
1F00
ENDCHAR

STARTCHAR Iacute
ENCODING 205
SWIDTH 280 0
DWIDTH 9 0
BBX 9 32 1 0
BITMAP
0F80
1F00
1E00
3C00
7800
F000
0000
0000
7C00
7C00
7C00
7C00
7C00
7C00
7C00
7C00
7C00
7C00
7C00
7C00
7C00
7C00
7C00
7C00
7C00
7C00
7C00
7C00
7C00
7C00
7C00
7C00
ENDCHAR

STARTCHAR Icircumflex
ENCODING 206
SWIDTH 280 0
DWIDTH 9 0
BBX 13 30 -2 0
BITMAP
0F80
1FC0
3DE0
F8F8
0000
0000
0F80
0F80
0F80
0F80
0F80
0F80
0F80
0F80
0F80
0F80
0F80
0F80
0F80
0F80
0F80
0F80
0F80
0F80
0F80
0F80
0F80
0F80
0F80
0F80
ENDCHAR

STARTCHAR Idieresis
ENCODING 207
SWIDTH 280 0
DWIDTH 9 0
BBX 12 31 -2 0
BITMAP
70E0
F9F0
F9F0
F9F0
70E0
0000
0000
0F80
0F80
0F80
0F80
0F80
0F80
0F80
0F80
0F80
0F80
0F80
0F80
0F80
0F80
0F80
0F80
0F80
0F80
0F80
0F80
0F80
0F80
0F80
0F80
ENDCHAR

STARTCHAR Gbreve
ENCODING 208
SWIDTH 840 0
DWIDTH 28 0
BBX 25 30 1 0
BITMAP
03E1E000
01FFE000
00FFC000
007F0000
00000000
00000000
00FFC000
03FFF000
07FFFC00
0FFFFE00
1FC0FE00
3F003C00
3E001800
7C000000
7C000000
F8000000
F8000000
F8000000
F807FF80
F807FF80
7807FF80
7C07FF80
7C000F00
3E001F00
3F803F00
1FE0FE00
0FFFFC00
07FFF800
03FFF000
007FC000
ENDCHAR

STARTCHAR Ntilde
ENCODING 209
SWIDTH 740 0
DWIDTH 24 0
BBX 19 30 3 0
BITMAP
0FC600
1FFE00
0FFF00
0C7E00
000000
000000
F803E0
F803E0
FC03E0
FE03E0
FE03E0
FF03E0
FF83E0
FF83E0
FBC3E0
FBC3E0
FBE3E0
F9F3E0
F9F3E0
F8FBE0
F87DE0
F87DE0
F83FE0
F81FE0
F81FE0
F80FE0
F80FE0
F807E0
F803E0
F803E0
ENDCHAR

STARTCHAR Ograve
ENCODING 210
SWIDTH 840 0
DWIDTH 28 0
BBX 25 32 1 0
BITMAP
01F00000
00F80000
00780000
003C0000
001E0000
000F0000
00000000
00000000
00FF8000
03FFE000
07FFF800
0FFFFC00
1FC1FE00
3F007E00
3E001F00
7C001F00
7C000F80
F8000F80
F8000780
F8000780
F8000780
F8000780
F8000F80
7C000F80
7C001F00
3E003F00
3F007E00
1FC1FE00
0FFFFC00
07FFF800
03FFE000
007F8000
ENDCHAR

STARTCHAR Oacute
ENCODING 211
SWIDTH 840 0
DWIDTH 28 0
BBX 25 32 1 0
BITMAP
0007E000
0007C000
000F8000
001F0000
001E0000
003C0000
00000000
00000000
00FF8000
03FFE000
07FFF800
0FFFFC00
1FC1FE00
3F007E00
3E001F00
7C001F00
7C000F80
F8000F80
F8000780
F8000780
F8000780
F8000780
F8000F80
7C000F80
7C001F00
3E003F00
3F007E00
1FC1FE00
0FFFFC00
07FFF800
03FFE000
007F8000
ENDCHAR

STARTCHAR Ocircumflex
ENCODING 212
SWIDTH 840 0
DWIDTH 28 0
BBX 25 30 1 0
BITMAP
003E0000
007F0000
00FB8000
03F3E000
00000000
00000000
00FF8000
03FFE000
07FFF800
0FFFFC00
1FC1FE00
3F007E00
3E001F00
7C001F00
7C000F80
F8000F80
F8000780
F8000780
F8000780
F8000780
F8000F80
7C000F80
7C001F00
3E003F00
3F007E00
1FC1FE00
0FFFFC00
07FFF800
03FFE000
007F8000
ENDCHAR

STARTCHAR Otilde
ENCODING 213
SWIDTH 840 0
DWIDTH 28 0
BBX 25 30 1 0
BITMAP
01F84000
03FFE000
01FFF000
018FC000
00000000
00000000
00FF8000
03FFE000
07FFF800
0FFFFC00
1FC1FE00
3F007E00
3E001F00
7C001F00
7C000F80
F8000F80
F8000780
F8000780
F8000780
F8000780
F8000F80
7C000F80
7C001F00
3E003F00
3F007E00
1FC1FE00
0FFFFC00
07FFF800
03FFE000
007F8000
ENDCHAR

STARTCHAR Odieresis
ENCODING 214
SWIDTH 840 0
DWIDTH 28 0
BBX 25 30 1 0
BITMAP
00E1C000
01F3E000
01F3E000
01E1E000
00408000
00000000
007F8000
03FFE000
07FFF800
0FFFFC00
1FE1FE00
3F007E00
3E001F00
7C001F00
7C000F80
F8000F80
F8000780
F8000780
F8000780
F8000780
F8000F80
7C000F80
7C001F00
3E001F00
3F807E00
1FE1FE00
0FFFFC00
07FFF800
01FFE000
007F8000
ENDCHAR

STARTCHAR multiply
ENCODING 215
SWIDTH 600 0
DWIDTH 20 0
BBX 15 15 2 4
BITMAP
300C
F81E
7C3E
3E7C
1F78
0FF0
07C0
07E0
0FF0
1FF8
3E7C
FC3E
781E
300C
1004
ENDCHAR

STARTCHAR Oslash
ENCODING 216
SWIDTH 840 0
DWIDTH 28 0
BBX 25 26 1 -1
BITMAP
00000200
00FF8780
03FFE700
07FFFE00
0FFFFC00
1FC1FE00
3F007E00
3E00FF00
7C01EF00
7C03CF80
F8078F80
F8070780
F80E0780
F81C0780
F83C0780
F8780F80
7CF00F80
7DE01F00
3FC03F00
3F807E00
1FC1FE00
0FFFFC00
1FFFF800
3DFFE000
787F8000
30000000
ENDCHAR

STARTCHAR Ugrave
ENCODING 217
SWIDTH 640 0
DWIDTH 21 0
BBX 17 32 2 0
BITMAP
3F0000
0F8000
078000
03C000
01E000
00F000
000000
000000
F80F80
F80F80
F80F80
F80F80
F80F80
F80F80
F80F80
F80F80
F80F80
F80F80
F80F80
F80F80
F80F80
F80F80
F80F80
F80F80
F80F80
F80F80
7C1F00
7E3F00
7FFF00
3FFE00
1FFC00
07F000
ENDCHAR

STARTCHAR Uacute
ENCODING 218
SWIDTH 640 0
DWIDTH 21 0
BBX 17 32 2 0
BITMAP
007E00
00F800
00F000
01E000
03C000
078000
000000
000000
F80F80
F80F80
F80F80
F80F80
F80F80
F80F80
F80F80
F80F80
F80F80
F80F80
F80F80
F80F80
F80F80
F80F80
F80F80
F80F80
F80F80
F80F80
7C1F00
7E3F00
7FFF00
3FFE00
1FFC00
07F000
ENDCHAR

STARTCHAR Ucircumflex
ENCODING 219
SWIDTH 640 0
DWIDTH 21 0
BBX 17 30 2 0
BITMAP
03E000
07F000
0F7800
3E3E00
000000
000000
F80F80
F80F80
F80F80
F80F80
F80F80
F80F80
F80F80
F80F80
F80F80
F80F80
F80F80
F80F80
F80F80
F80F80
F80F80
F80F80
F80F80
F80F80
7C1F00
7E3F00
7FFF00
3FFE00
1FFC00
07F000
ENDCHAR

STARTCHAR Udieresis
ENCODING 220
SWIDTH 640 0
DWIDTH 21 0
BBX 16 31 3 0
BITMAP
1C38
3E7C
3E7C
3E7C
1C38
0000
0000
F81F
F81F
F81F
F81F
F81F
F81F
F81F
F81F
F81F
F81F
F81F
F81F
F81F
F81F
F81F
F81F
F81F
F81F
781E
7C7E
7FFE
3FFC
1FF8
07E0
ENDCHAR

STARTCHAR Idotaccent
ENCODING 221
SWIDTH 280 0
DWIDTH 9 0
BBX 5 31 2 0
BITMAP
70
F8
F8
F8
70
00
00
F8
F8
F8
F8
F8
F8
F8
F8
F8
F8
F8
F8
F8
F8
F8
F8
F8
F8
F8
F8
F8
F8
F8
F8
ENDCHAR

STARTCHAR Scedilla
ENCODING 222
SWIDTH 520 0
DWIDTH 17 0
BBX 14 30 1 -6
BITMAP
0FC0
1FF0
3FF8
7FFC
7C78
7830
7C00
7C00
3F00
3F80
1FC0
0FE0
07F0
01F8
00FC
007C
003C
303C
783C
FC7C
7FFC
7FF8
3FF0
0FE0
0380
01E0
00E0
09E0
0FC0
1FC0
ENDCHAR

STARTCHAR germandbls
ENCODING 223
SWIDTH 600 0
DWIDTH 20 0
BBX 16 25 2 0
BITMAP
07E0
1FF8
3FFC
7FFE
7C3E
F81E
F81E
F01E
F03E
F1FC
F1D8
F1E0
F1F8
F07E
F01E
F01F
F00F
F00F
F00F
F01F
F23F
F3FE
F3FE
F3FC
F3F0
ENDCHAR

STARTCHAR agrave
ENCODING 224
SWIDTH 660 0
DWIDTH 22 0
BBX 18 27 2 0
BITMAP
1F8000
0F8000
07C000
03C000
01E000
00F000
000000
000000
000000
07E3C0
1FFBC0
3FFFC0
7FFFC0
7E1FC0
F807C0
F807C0
F003C0
F003C0
F003C0
F003C0
F807C0
FC07C0
7E1FC0
3FFFC0
3FFFC0
0FFBC0
03E3C0
ENDCHAR

STARTCHAR aacute
ENCODING 225
SWIDTH 660 0
DWIDTH 22 0
BBX 18 27 2 0
BITMAP
007E00
007C00
00F800
01F000
01E000
03C000
000000
000000
000000
07E3C0
1FFBC0
3FFFC0
7FFFC0
7E1FC0
F807C0
F807C0
F003C0
F003C0
F003C0
F003C0
F807C0
FC07C0
7E1FC0
3FFFC0
3FFFC0
0FFBC0
03E3C0
ENDCHAR

STARTCHAR acircumflex
ENCODING 226
SWIDTH 660 0
DWIDTH 22 0
BBX 18 25 2 0
BITMAP
03F000
07F800
0FBC00
3F3F00
000000
000000
000000
07E3C0
1FFBC0
3FFFC0
7FFFC0
7E1FC0
F807C0
F807C0
F003C0
F003C0
F003C0
F003C0
F807C0
FC07C0
7E1FC0
3FFFC0
3FFFC0
0FFBC0
03E3C0
ENDCHAR

STARTCHAR atilde
ENCODING 227
SWIDTH 660 0
DWIDTH 22 0
BBX 18 25 2 0
BITMAP
0FC400
3FFE00
1FFF00
08FC00
000000
000000
000000
07E3C0
1FFBC0
3FFFC0
7FFFC0
7E1FC0
F807C0
F807C0
F003C0
F003C0
F003C0
F003C0
F807C0
FC07C0
7E1FC0
3FFFC0
3FFFC0
0FFBC0
03E3C0
ENDCHAR

STARTCHAR adieresis
ENCODING 228
SWIDTH 660 0
DWIDTH 22 0
BBX 18 26 2 0
BITMAP
0E1C00
1F3E00
1F3E00
1F3E00
0E1C00
000000
000000
000000
07E3C0
1FFBC0
3FFFC0
7FFFC0
7E1FC0
F807C0
F807C0
F003C0
F003C0
F003C0
F003C0
F807C0
FC07C0
7E1FC0
3FFFC0
3FFFC0
0FFBC0
03E3C0
ENDCHAR

STARTCHAR aring
ENCODING 229
SWIDTH 660 0
DWIDTH 22 0
BBX 18 28 2 0
BITMAP
03E000
03F000
073000
063000
077000
03F000
01E000
000000
000000
000000
07E3C0
1FF3C0
3FFFC0
7FFFC0
7C1FC0
F80FC0
F807C0
F003C0
F003C0
F003C0
F003C0
F807C0
F80FC0
7C1FC0
3FFFC0
3FFFC0
1FF3C0
07E3C0
ENDCHAR

STARTCHAR ae
ENCODING 230
SWIDTH 1080 0
DWIDTH 36 0
BBX 32 18 2 0
BITMAP
07E3CFC0
0FFBDFF0
3FFDFFF8
3FFFFFFC
7E1FF03E
F807E01F
F807E00F
F003FFFF
F003FFFF
F003FFFF
F003C000
F807E000
7C07E010
7E1FF83C
3FFFFFFE
3FFDFFFC
0FFBDFF0
03E3CFC0
ENDCHAR

STARTCHAR ccedilla
ENCODING 231
SWIDTH 640 0
DWIDTH 21 0
BBX 17 23 2 -5
BITMAP
03F800
0FFE00
1FFF00
3FFF80
7E0F00
F80200
F80000
F00000
F00000
F00000
F00000
F80000
780400
7E0F00
3FFF80
1FFF00
0FFE00
01D000
01E000
007000
047000
07F000
07E000
ENDCHAR

STARTCHAR egrave
ENCODING 232
SWIDTH 640 0
DWIDTH 21 0
BBX 18 27 2 0
BITMAP
1F8000
0F8000
07C000
03C000
01E000
00F000
000000
000000
000000
03F000
0FFC00
1FFE00
3FFF00
7C0F80
7807C0
F003C0
FFFFC0
FFFFC0
FFFFC0
F00000
F80000
780400
7E0F00
3FFF80
1FFF00
0FFE00
03F000
ENDCHAR

STARTCHAR eacute
ENCODING 233
SWIDTH 640 0
DWIDTH 21 0
BBX 18 27 2 0
BITMAP
003E00
007C00
00F800
00F000
01E000
03C000
000000
000000
000000
03F000
0FFC00
1FFE00
3FFF00
7C0F80
7807C0
F003C0
FFFFC0
FFFFC0
FFFFC0
F00000
F80000
780400
7E0F00
3FFF80
1FFF00
0FFE00
03F000
ENDCHAR

STARTCHAR ecircumflex
ENCODING 234
SWIDTH 640 0
DWIDTH 21 0
BBX 18 25 2 0
BITMAP
01F000
07F800
0FBC00
1F3F00
000000
000000
000000
03F000
0FFC00
1FFE00
3FFF00
7C0F80
7807C0
F003C0
FFFFC0
FFFFC0
FFFFC0
F00000
F80000
780400
7E0F00
3FFF80
1FFF00
0FFE00
03F000
ENDCHAR

STARTCHAR edieresis
ENCODING 235
SWIDTH 640 0
DWIDTH 21 0
BBX 18 26 2 0
BITMAP
0E1C00
1F3E00
1F3E00
1F3E00
0E1C00
000000
000000
000000
03F000
0FFC00
1FFE00
3FFF00
7C0F80
7807C0
F003C0
FFFFC0
FFFFC0
FFFFC0
F00000
F80000
780400
7E0F00
3FFF80
1FFF00
0FFE00
03F000
ENDCHAR

STARTCHAR igrave
ENCODING 236
SWIDTH 240 0
DWIDTH 8 0
BBX 9 27 -2 0
BITMAP
FC00
3C00
1E00
0F00
0700
0380
0000
0000
0000
0F00
0F00
0F00
0F00
0F00
0F00
0F00
0F00
0F00
0F00
0F00
0F00
0F00
0F00
0F00
0F00
0F00
0F00
ENDCHAR

STARTCHAR iacute
ENCODING 237
SWIDTH 240 0
DWIDTH 8 0
BBX 9 27 1 0
BITMAP
1F80
1E00
3C00
7800
7000
E000
0000
0000
0000
7800
7800
7800
7800
7800
7800
7800
7800
7800
7800
7800
7800
7800
7800
7800
7800
7800
7800
ENDCHAR

STARTCHAR icircumflex
ENCODING 238
SWIDTH 240 0
DWIDTH 8 0
BBX 14 26 -3 0
BITMAP
0780
0FC0
1FE0
3EF0
FCFC
0000
0000
0000
0780
0780
0780
0780
0780
0780
0780
0780
0780
0780
0780
0780
0780
0780
0780
0780
0780
0780
ENDCHAR

STARTCHAR idieresis
ENCODING 239
SWIDTH 240 0
DWIDTH 8 0
BBX 12 26 -2 0
BITMAP
70E0
F9F0
F9F0
F9F0
70E0
0000
0000
0000
0F00
0F00
0F00
0F00
0F00
0F00
0F00
0F00
0F00
0F00
0F00
0F00
0F00
0F00
0F00
0F00
0F00
0F00
ENDCHAR

STARTCHAR gbreve
ENCODING 240
SWIDTH 660 0
DWIDTH 22 0
BBX 18 31 2 -6
BITMAP
3E1F00
1FFE00
0FFC00
03F000
000000
000000
000000
07E3C0
1FFBC0
3FFFC0
7FFFC0
7E1FC0
FC07C0
F807C0
F003C0
F003C0
F003C0
F003C0
F807C0
FC07C0
7E1FC0
3FFFC0
1FFFC0
0FFBC0
03E7C0
0007C0
F80F80
7FFF80
3FFF00
1FFE00
07F800
ENDCHAR

STARTCHAR ntilde
ENCODING 241
SWIDTH 600 0
DWIDTH 20 0
BBX 15 25 2 0
BITMAP
3F18
7FFC
3FFC
31F8
0000
0000
0000
F1F0
F7F8
FFFC
FFFE
FC3E
F83E
F81E
F01E
F01E
F01E
F01E
F01E
F01E
F01E
F01E
F01E
F01E
F01E
ENDCHAR

STARTCHAR ograve
ENCODING 242
SWIDTH 640 0
DWIDTH 21 0
BBX 18 27 2 0
BITMAP
1F8000
078000
03C000
03E000
01E000
00F000
000000
000000
000000
03F000
0FFC00
1FFE00
3FFF00
7E1F80
7C07C0
F807C0
F003C0
F003C0
F003C0
F003C0
F807C0
7C0F80
7E1F80
3FFF00
1FFE00
0FFC00
03F000
ENDCHAR

STARTCHAR oacute
ENCODING 243
SWIDTH 640 0
DWIDTH 21 0
BBX 18 27 2 0
BITMAP
007E00
007800
00F800
00F000
01E000
03C000
000000
000000
000000
03F000
0FFC00
1FFE00
3FFF00
7E1F80
7C07C0
F807C0
F003C0
F003C0
F003C0
F003C0
F807C0
7C0F80
7E1F80
3FFF00
1FFE00
0FFC00
03F000
ENDCHAR

STARTCHAR ocircumflex
ENCODING 244
SWIDTH 640 0
DWIDTH 21 0
BBX 18 25 2 0
BITMAP
03F000
07F800
0FBC00
3F3F00
000000
000000
000000
03F000
0FFC00
1FFE00
3FFF00
7E1F80
7C07C0
F807C0
F003C0
F003C0
F003C0
F003C0
F807C0
7C0F80
7E1F80
3FFF00
1FFE00
0FFC00
03F000
ENDCHAR

STARTCHAR otilde
ENCODING 245
SWIDTH 640 0
DWIDTH 21 0
BBX 18 25 2 0
BITMAP
0FC400
3FFE00
1FFF00
087C00
000000
000000
000000
03F000
0FFC00
1FFE00
3FFF00
7E1F80
7C07C0
F807C0
F003C0
F003C0
F003C0
F003C0
F807C0
7C0F80
7E1F80
3FFF00
1FFE00
0FFC00
03F000
ENDCHAR

STARTCHAR odieresis
ENCODING 246
SWIDTH 640 0
DWIDTH 21 0
BBX 18 26 2 0
BITMAP
0E1C00
1F3E00
1F3E00
1F3E00
0E1C00
000000
000000
000000
03F000
0FFC00
1FFE00
3FFF00
7E1F80
7C07C0
F807C0
F003C0
F003C0
F003C0
F003C0
F807C0
7C0F80
7E1F80
3FFF00
1FFE00
0FFC00
03F000
ENDCHAR

STARTCHAR divide
ENCODING 247
SWIDTH 600 0
DWIDTH 20 0
BBX 17 19 1 3
BITMAP
03E000
03E000
03E000
03E000
03E000
000000
000000
000000
FFFF80
FFFF80
FFFF80
FFFF80
000000
000000
03E000
03E000
03E000
03E000
03E000
ENDCHAR

STARTCHAR oslash
ENCODING 248
SWIDTH 660 0
DWIDTH 22 0
BBX 18 20 2 -1
BITMAP
000080
03F1C0
0FFDC0
1FFF80
3FFF00
7E1F80
FC1FC0
F83FC0
F073C0
F0F3C0
F1E3C0
F3C3C0
FB87C0
7F0FC0
7E1F80
3FFF00
3FFE00
7FFC00
E3F000
400000
ENDCHAR

STARTCHAR ugrave
ENCODING 249
SWIDTH 600 0
DWIDTH 20 0
BBX 15 27 2 0
BITMAP
3F00
0F00
0780
0780
03C0
01E0
0000
0000
0000
F81E
F81E
F81E
F81E
F81E
F81E
F81E
F81E
F81E
F81E
F81E
F81E
783E
7C7E
7FFC
3FF8
1FF0
07E0
ENDCHAR

STARTCHAR uacute
ENCODING 250
SWIDTH 600 0
DWIDTH 20 0
BBX 15 27 2 0
BITMAP
00FC
01F0
01E0
03C0
0380
0700
0000
0000
0000
F81E
F81E
F81E
F81E
F81E
F81E
F81E
F81E
F81E
F81E
F81E
F81E
783E
7C7E
7FFC
3FF8
1FF0
07E0
ENDCHAR

STARTCHAR ucircumflex
ENCODING 251
SWIDTH 600 0
DWIDTH 20 0
BBX 15 26 2 0
BITMAP
03C0
07E0
0FF0
1EF8
7C7C
0000
0000
0000
F81E
F81E
F81E
F81E
F81E
F81E
F81E
F81E
F81E
F81E
F81E
F81E
783E
7C7E
7FFC
3FF8
1FF0
07E0
ENDCHAR

STARTCHAR udieresis
ENCODING 252
SWIDTH 600 0
DWIDTH 20 0
BBX 15 26 2 0
BITMAP
1C38
3E7C
3E7C
3E7C
1C38
0000
0000
0000
F81E
F81E
F81E
F81E
F81E
F81E
F81E
F81E
F81E
F81E
F81E
F81E
783E
7C7E
7FFC
3FF8
1FF0
07E0
ENDCHAR

STARTCHAR dotlessi
ENCODING 253
SWIDTH 240 0
DWIDTH 8 0
BBX 4 18 2 0
BITMAP
F0
F0
F0
F0
F0
F0
F0
F0
F0
F0
F0
F0
F0
F0
F0
F0
F0
F0
ENDCHAR

STARTCHAR scedilla
ENCODING 254
SWIDTH 440 0
DWIDTH 15 0
BBX 13 23 0 -5
BITMAP
0FC0
1FE0
3FF8
7FF0
7860
7820
7E00
3F80
1FE0
0FF0
03F8
00F8
1078
38F8
FFF8
7FF0
3FE0
0F00
07C0
01C0
13C0
1FC0
3F80
ENDCHAR

STARTCHAR ydieresis
ENCODING 255
SWIDTH 580 0
DWIDTH 19 0
BBX 18 32 1 -6
BITMAP
0E1C00
1F3E00
1F3E00
1F3E00
0E1C00
000000
000000
000000
F003C0
F807C0
780780
7C0F80
3C0F00
3C1F00
3E1E00
1E3E00
1F3C00
0F7C00
0FB800
0FF800
07F800
07F000
03F000
03E000
03E000
03C000
07C000
078000
0F8000
0F0000
1F0000
1E0000
ENDCHAR
ENDFONT
